# Blender v2.91.2 OBJ File: 'wine-glass.blend'
# www.blender.org
v -0.000000 0.001074 -0.032144
v 0.000000 0.192565 -0.075000
v 0.012301 0.001074 -0.029697
v 0.028701 0.192565 -0.069291
v 0.022729 0.001074 -0.022729
v 0.053033 0.192565 -0.053033
v 0.029697 0.001074 -0.012301
v 0.069291 0.192565 -0.028701
v 0.032144 0.001074 0.000000
v 0.075000 0.192565 0.000000
v 0.029697 0.001074 0.012301
v 0.069291 0.192565 0.028701
v 0.022729 0.001074 0.022729
v 0.053033 0.192565 0.053033
v 0.012301 0.001074 0.029697
v 0.028701 0.192565 0.069291
v 0.000000 0.001074 0.032144
v 0.000000 0.192565 0.075000
v -0.012301 0.001074 0.029697
v -0.028701 0.192565 0.069291
v -0.022729 0.001074 0.022729
v -0.053033 0.192565 0.053033
v -0.029697 0.001074 0.012301
v -0.069291 0.192565 0.028701
v -0.032144 0.001074 0.000000
v -0.075000 0.192565 -0.000000
v -0.029697 0.001074 -0.012301
v -0.069291 0.192565 -0.028701
v -0.022729 0.001074 -0.022729
v -0.053033 0.192565 -0.053033
v -0.012301 0.001074 -0.029697
v -0.028701 0.192565 -0.069291
v 0.000000 0.042565 -0.075000
v 0.028701 0.042565 -0.069291
v 0.053033 0.042565 -0.053033
v 0.069291 0.042565 -0.028701
v 0.075000 0.042565 0.000000
v 0.069291 0.042565 0.028701
v 0.053033 0.042565 0.053033
v 0.028701 0.042565 0.069291
v 0.000000 0.042565 0.075000
v -0.028701 0.042565 0.069291
v -0.053033 0.042565 0.053033
v -0.069291 0.042565 0.028701
v -0.075000 0.042565 -0.000000
v -0.069291 0.042565 -0.028701
v -0.053033 0.042565 -0.053033
v -0.028701 0.042565 -0.069291
v -0.000000 0.016338 -0.053092
v 0.020317 0.016338 -0.049050
v 0.037541 0.016338 -0.037541
v 0.049050 0.016338 -0.020317
v 0.053092 0.016338 0.000000
v 0.049050 0.016338 0.020317
v 0.037541 0.016338 0.037541
v 0.020317 0.016338 0.049050
v 0.000000 0.016338 0.053092
v -0.020317 0.016338 0.049050
v -0.037541 0.016338 0.037541
v -0.049050 0.016338 0.020317
v -0.053092 0.016338 0.000000
v -0.049050 0.016338 -0.020317
v -0.037541 0.016338 -0.037541
v -0.020317 0.016338 -0.049050
v -0.000000 0.086950 -0.085050
v 0.032547 0.086950 -0.078576
v 0.060140 0.086950 -0.060140
v 0.078576 0.086950 -0.032547
v 0.085050 0.086950 0.000000
v 0.078576 0.086950 0.032547
v 0.060140 0.086950 0.060140
v 0.032547 0.086950 0.078576
v 0.000000 0.086950 0.085050
v -0.032547 0.086950 0.078576
v -0.060140 0.086950 0.060140
v -0.078576 0.086950 0.032547
v -0.085050 0.086950 -0.000000
v -0.078576 0.086950 -0.032547
v -0.060140 0.086950 -0.060140
v -0.032547 0.086950 -0.078576
vn 0.1942 0.0929 -0.9765
vn 0.5532 0.0929 -0.8279
vn 0.8279 0.0929 -0.5532
vn 0.9765 0.0929 -0.1942
vn 0.9765 0.0929 0.1942
vn 0.8279 0.0929 0.5532
vn 0.5532 0.0929 0.8279
vn 0.1942 0.0929 0.9765
vn -0.1942 0.0929 0.9765
vn -0.5532 0.0929 0.8279
vn -0.8279 0.0929 0.5532
vn -0.9765 0.0929 0.1942
vn -0.9765 0.0929 -0.1942
vn -0.8279 0.0929 -0.5532
vn -0.5532 0.0929 -0.8279
vn -0.1942 0.0929 -0.9765
vn 0.0000 -1.0000 -0.0000
vn 0.1509 -0.6338 -0.7587
vn 0.4298 -0.6338 -0.6432
vn 0.6432 -0.6338 -0.4298
vn 0.7587 -0.6338 -0.1509
vn 0.7587 -0.6338 0.1509
vn 0.6432 -0.6338 0.4298
vn 0.4298 -0.6338 0.6432
vn 0.1509 -0.6338 0.7587
vn -0.1509 -0.6338 0.7587
vn -0.4298 -0.6338 0.6432
vn -0.6432 -0.6338 0.4298
vn -0.7587 -0.6338 0.1509
vn -0.7587 -0.6338 -0.1509
vn -0.6432 -0.6338 -0.4298
vn -0.4298 -0.6338 -0.6432
vn -0.1509 -0.6338 -0.7587
vn 0.1163 -0.8027 -0.5849
vn 0.3313 -0.8027 -0.4959
vn 0.4959 -0.8027 -0.3313
vn 0.5849 -0.8027 -0.1163
vn 0.5849 -0.8027 0.1163
vn 0.4959 -0.8027 0.3313
vn 0.3313 -0.8027 0.4959
vn 0.1163 -0.8027 0.5849
vn -0.1163 -0.8027 0.5849
vn -0.3313 -0.8027 0.4959
vn -0.4959 -0.8027 0.3313
vn -0.5849 -0.8027 0.1163
vn -0.5849 -0.8027 -0.1163
vn -0.4959 -0.8027 -0.3313
vn -0.3313 -0.8027 -0.4959
vn -0.1163 -0.8027 -0.5849
vn -0.1905 -0.2168 -0.9575
vn -0.5424 -0.2168 -0.8117
vn -0.8117 -0.2168 -0.5424
vn -0.9575 -0.2168 -0.1905
vn -0.9575 -0.2168 0.1905
vn -0.8117 -0.2168 0.5424
vn -0.5424 -0.2168 0.8117
vn -0.1905 -0.2168 0.9575
vn 0.1905 -0.2168 0.9575
vn 0.5424 -0.2168 0.8117
vn 0.8117 -0.2168 0.5424
vn 0.9575 -0.2168 0.1905
vn 0.9575 -0.2168 -0.1905
vn 0.8117 -0.2168 -0.5424
vn 0.5424 -0.2168 -0.8117
vn 0.1905 -0.2168 -0.9575
s off
f 65//1 2//1 4//1 66//1
f 66//2 4//2 6//2 67//2
f 67//3 6//3 8//3 68//3
f 68//4 8//4 10//4 69//4
f 69//5 10//5 12//5 70//5
f 70//6 12//6 14//6 71//6
f 71//7 14//7 16//7 72//7
f 72//8 16//8 18//8 73//8
f 73//9 18//9 20//9 74//9
f 74//10 20//10 22//10 75//10
f 75//11 22//11 24//11 76//11
f 76//12 24//12 26//12 77//12
f 77//13 26//13 28//13 78//13
f 78//14 28//14 30//14 79//14
f 79//15 30//15 32//15 80//15
f 80//16 32//16 2//16 65//16
f 1//17 3//17 5//17 7//17 9//17 11//17 13//17 15//17 17//17 19//17 21//17 23//17 25//17 27//17 29//17 31//17
f 50//18 49//18 33//18 34//18
f 51//19 50//19 34//19 35//19
f 52//20 51//20 35//20 36//20
f 53//21 52//21 36//21 37//21
f 54//22 53//22 37//22 38//22
f 55//23 54//23 38//23 39//23
f 56//24 55//24 39//24 40//24
f 57//25 56//25 40//25 41//25
f 58//26 57//26 41//26 42//26
f 59//27 58//27 42//27 43//27
f 60//28 59//28 43//28 44//28
f 61//29 60//29 44//29 45//29
f 62//30 61//30 45//30 46//30
f 63//31 62//31 46//31 47//31
f 64//32 63//32 47//32 48//32
f 49//33 64//33 48//33 33//33
f 3//34 1//34 49//34 50//34
f 5//35 3//35 50//35 51//35
f 7//36 5//36 51//36 52//36
f 9//37 7//37 52//37 53//37
f 11//38 9//38 53//38 54//38
f 13//39 11//39 54//39 55//39
f 15//40 13//40 55//40 56//40
f 17//41 15//41 56//41 57//41
f 19//42 17//42 57//42 58//42
f 21//43 19//43 58//43 59//43
f 23//44 21//44 59//44 60//44
f 25//45 23//45 60//45 61//45
f 27//46 25//46 61//46 62//46
f 29//47 27//47 62//47 63//47
f 31//48 29//48 63//48 64//48
f 1//49 31//49 64//49 49//49
f 48//50 80//50 65//50 33//50
f 47//51 79//51 80//51 48//51
f 46//52 78//52 79//52 47//52
f 45//53 77//53 78//53 46//53
f 44//54 76//54 77//54 45//54
f 43//55 75//55 76//55 44//55
f 42//56 74//56 75//56 43//56
f 41//57 73//57 74//57 42//57
f 40//58 72//58 73//58 41//58
f 39//59 71//59 72//59 40//59
f 38//60 70//60 71//60 39//60
f 37//61 69//61 70//61 38//61
f 36//62 68//62 69//62 37//62
f 35//63 67//63 68//63 36//63
f 34//64 66//64 67//64 35//64
f 33//65 65//65 66//65 34//65
