# Blender v2.79 (sub 0) OBJ File: ''
# www.blender.org
o Wine_Glass_Cylinder.001
v 0.000000 0.091700 -0.035888
v 0.000000 0.109673 -0.032691
v 0.012510 0.109673 -0.030202
v 0.013734 0.091700 -0.033156
v 0.023116 0.109673 -0.023116
v 0.025377 0.091700 -0.025377
v 0.030202 0.109673 -0.012510
v 0.033156 0.091700 -0.013734
v 0.032691 0.109673 0.000000
v 0.035888 0.091700 0.000000
v 0.030202 0.109673 0.012510
v 0.033156 0.091700 0.013734
v 0.023116 0.109673 0.023116
v 0.025377 0.091700 0.025377
v 0.012510 0.109673 0.030202
v 0.013734 0.091700 0.033156
v 0.000000 0.109673 0.032691
v 0.000000 0.091700 0.035888
v -0.012510 0.109673 0.030202
v -0.013734 0.091700 0.033156
v -0.023116 0.109673 0.023116
v -0.025377 0.091700 0.025377
v -0.030202 0.109673 0.012510
v -0.033156 0.091700 0.013734
v -0.032691 0.109673 0.000000
v -0.035888 0.091700 0.000000
v -0.030202 0.109673 -0.012510
v -0.033156 0.091700 -0.013734
v -0.023116 0.109673 -0.023116
v -0.025377 0.091700 -0.025377
v -0.014461 0.057716 -0.034913
v -0.014580 0.075436 -0.035200
v 0.000000 0.075436 -0.038100
v 0.000000 0.057716 -0.037789
v -0.012510 0.109673 -0.030202
v -0.013734 0.091700 -0.033156
v -0.001032 0.009673 -0.011268
v 0.003280 0.009673 -0.010410
v 0.006935 0.009673 -0.007968
v 0.009378 0.009673 -0.004312
v 0.010236 0.009673 0.000000
v 0.009378 0.009673 0.004312
v 0.006935 0.009673 0.007968
v 0.003280 0.009673 0.010410
v -0.001032 0.009673 0.011268
v -0.005344 0.009673 0.010410
v -0.009000 0.009673 0.007968
v -0.011443 0.009673 0.004312
v -0.012300 0.009673 0.000000
v -0.011443 0.009673 -0.004312
v -0.009000 0.009673 -0.007968
v -0.005344 0.009673 -0.010410
v -0.026721 0.057716 -0.026721
v -0.026941 0.075436 -0.026941
v -0.034913 0.057716 -0.014461
v -0.035200 0.075436 -0.014580
v -0.037789 0.057716 0.000000
v -0.038100 0.075436 0.000000
v -0.034913 0.057716 0.014461
v -0.035200 0.075436 0.014580
v -0.026721 0.057716 0.026721
v -0.026941 0.075436 0.026941
v -0.014461 0.057716 0.034913
v -0.014580 0.075436 0.035200
v 0.000000 0.057716 0.037789
v 0.000000 0.075436 0.038100
v 0.014461 0.057716 0.034913
v 0.014580 0.075436 0.035200
v 0.026721 0.057716 0.026721
v 0.026941 0.075436 0.026941
v 0.034913 0.057716 0.014461
v 0.035200 0.075436 0.014580
v 0.037789 0.057716 0.000000
v 0.038100 0.075436 0.000000
v 0.034913 0.057716 -0.014461
v 0.035200 0.075436 -0.014580
v 0.026721 0.057716 -0.026721
v 0.026941 0.075436 -0.026941
v 0.014461 0.057716 -0.034913
v 0.014580 0.075436 -0.035200
v 0.000000 0.024528 -0.024009
v 0.009188 0.024528 -0.022181
v 0.000000 0.036823 -0.031408
v 0.012019 0.036823 -0.029017
v 0.016977 0.024528 -0.016977
v 0.022209 0.036823 -0.022209
v 0.022181 0.024528 -0.009188
v 0.029017 0.036823 -0.012019
v 0.024009 0.024528 0.000000
v 0.031408 0.036823 0.000000
v 0.022181 0.024528 0.009188
v 0.029017 0.036823 0.012019
v 0.016977 0.024528 0.016977
v 0.022209 0.036823 0.022209
v 0.009188 0.024528 0.022181
v 0.012019 0.036823 0.029017
v 0.000000 0.024528 0.024009
v 0.000000 0.036823 0.031408
v -0.009188 0.024528 0.022181
v -0.012019 0.036823 0.029017
v -0.016977 0.024528 0.016977
v -0.022209 0.036823 0.022209
v -0.022181 0.024528 0.009188
v -0.029017 0.036823 0.012019
v -0.024009 0.024528 0.000000
v -0.031408 0.036823 0.000000
v -0.022181 0.024528 -0.009188
v -0.029017 0.036823 -0.012019
v -0.016977 0.024528 -0.016977
v -0.022209 0.036823 -0.022209
v -0.009188 0.024528 -0.022181
v -0.012019 0.036823 -0.029017
v 0.012346 0.017677 -0.012822
v -0.019645 0.030798 -0.019645
v -0.007336 0.017371 0.016510
v -0.007371 0.017507 -0.016617
v 0.012374 0.017719 0.012848
v -0.017116 0.017521 -0.006888
v -0.000510 0.017190 0.017716
v -0.013160 0.017419 0.012666
v 0.010646 0.030860 0.025702
v 0.017890 0.017928 0.000000
v -0.000514 0.017134 -0.017667
v -0.000490 0.017474 -0.017959
v 0.000000 0.030915 0.027852
v -0.019821 0.031212 0.019821
v 0.027676 0.030622 0.000000
v -0.010720 0.031181 0.025880
v 0.016451 0.017880 0.007006
v -0.017075 0.017464 0.006869
v 0.025534 0.030558 -0.010576
v 0.010546 0.030427 -0.025461
v 0.010566 0.030513 -0.025509
v 0.006383 0.017476 0.016593
v -0.018469 0.017500 0.000000
v 0.025613 0.030701 0.010609
v -0.013215 0.017523 -0.012729
v -0.027957 0.031088 0.000000
v 0.019527 0.030520 -0.019527
v 0.006362 0.017422 -0.016550
v 0.000000 0.030513 -0.027611
v 0.016431 0.017856 -0.006998
v 0.019640 0.030785 0.019640
v -0.025879 0.031179 0.010719
v -0.025754 0.030954 -0.010668
v -0.010596 0.030643 -0.025581
v -0.013330 0.048041 -0.032183
v 0.031963 0.047261 -0.013239
v 0.013351 0.048215 -0.032232
v 0.024559 0.047706 0.024559
v -0.031910 0.047073 0.013217
v 0.000000 0.047184 0.034572
v 0.013257 0.047419 0.032007
v -0.031846 0.046849 -0.013191
v 0.024591 0.047855 -0.024591
v -0.024523 0.047536 -0.024523
v -0.013213 0.047037 0.031899
v -0.034593 0.047252 0.000000
v -0.034238 0.046088 0.000000
v 0.032171 0.048001 0.013326
v -0.024406 0.046997 0.024406
v 0.000000 0.048281 -0.034907
v 0.034530 0.047046 0.000000
v 0.000000 0.067275 0.037957
v -0.037943 0.066491 0.000000
v 0.014525 0.067279 0.035068
v 0.035063 0.067007 0.014523
v -0.014525 0.067172 0.035066
v 0.026839 0.067185 0.026839
v -0.026836 0.066987 0.026836
v -0.035059 0.066748 0.014522
v 0.026832 0.066681 -0.026832
v -0.026826 0.066204 -0.026826
v 0.035056 0.066522 -0.014520
v -0.037927 0.065600 0.000000
v 0.000000 0.066652 -0.037946
v -0.014520 0.066468 -0.035055
v 0.014522 0.066726 -0.035059
v -0.035046 0.065899 -0.014516
v 0.037947 0.066712 0.000000
v 0.034215 0.083276 0.014172
v 0.026207 0.083068 0.026207
v -0.034173 0.083610 0.014155
v 0.000000 0.082974 0.037075
v -0.014181 0.083102 0.034237
v 0.014188 0.082963 0.034254
v -0.036947 0.083913 0.000000
v -0.026182 0.083325 0.026182
v 0.036996 0.083552 0.000000
v 0.026172 0.083437 -0.026172
v -0.034183 0.083527 -0.014159
v 0.034188 0.083488 -0.014161
v -0.026169 0.083468 -0.026169
v 0.000000 0.083402 -0.037017
v -0.036990 0.083594 0.000000
v -0.014165 0.083424 -0.034196
v 0.014165 0.083407 -0.034198
v -0.031580 0.101289 -0.013081
v -0.024122 0.101674 -0.024122
v -0.034238 0.100974 0.000000
v -0.031664 0.100779 0.013116
v -0.013111 0.100845 0.031653
v 0.000000 0.101095 0.034217
v -0.024241 0.100733 0.024241
v -0.013028 0.102070 -0.031452
v 0.013070 0.101446 0.031554
v 0.000000 0.102014 -0.034053
v 0.024107 0.101799 -0.024107
v 0.031549 0.101478 0.013068
v 0.013038 0.101919 -0.031476
v 0.031517 0.101673 -0.013055
v 0.034134 0.101561 0.000000
v 0.025282 0.101444 0.022459
vt 0.998344 0.913690
vt 0.999294 0.963218
vt 0.937500 0.962762
vt 0.937500 0.913690
vt 0.875000 0.962189
vt 0.875000 0.913690
vt 0.812500 0.961585
vt 0.812500 0.913690
vt 0.750000 0.961042
vt 0.750000 0.913690
vt 0.687500 0.960644
vt 0.687500 0.913690
vt 0.634533 0.960481
vt 0.625000 1.000000
vt 0.625000 0.913690
vt 0.562500 1.000000
vt 0.562500 0.960493
vt 0.562500 0.913690
vt 0.500000 0.958808
vt 0.500000 0.913690
vt 0.437500 0.957605
vt 0.437500 0.913690
vt 0.375000 0.957071
vt 0.375000 0.913690
vt 0.312500 0.957290
vt 0.312500 0.913690
vt 0.250000 0.958227
vt 0.250000 0.913690
vt 0.187500 0.959737
vt 0.187500 0.913690
vt 0.125000 0.961585
vt 0.125000 0.913690
vt 0.062500 0.745536
vt 0.062500 0.785961
vt 0.000000 0.786808
vt 0.000000 0.745536
vt 0.062500 0.963488
vt 0.062500 0.913690
vt 0.000706 0.963218
vt 0.001656 0.913690
vt 0.750000 0.490000
vt 0.841844 0.471731
vt 0.919706 0.419706
vt 0.971731 0.341844
vt 0.990000 0.250000
vt 0.971731 0.158156
vt 0.919706 0.080294
vt 0.841844 0.028269
vt 0.750000 0.010000
vt 0.658156 0.028269
vt 0.580294 0.080294
vt 0.528269 0.158156
vt 0.510000 0.250000
vt 0.528269 0.341844
vt 0.580294 0.419706
vt 0.658156 0.471731
vt 0.125000 0.745536
vt 0.125000 0.784740
vt 0.187500 0.745536
vt 0.187500 0.783331
vt 0.250000 0.745536
vt 0.250000 0.781950
vt 0.312500 0.745536
vt 0.312500 0.787253
vt 0.250000 0.786066
vt 0.375000 0.745536
vt 0.375000 0.788358
vt 0.437500 0.745536
vt 0.437500 0.789212
vt 0.500000 0.745536
vt 0.500000 0.789686
vt 0.562500 0.745536
vt 0.562500 0.789708
vt 0.625000 0.745536
vt 0.625000 0.789273
vt 0.687500 0.745536
vt 0.687500 0.788448
vt 0.750000 0.745536
vt 0.750000 0.787085
vt 0.812500 0.745536
vt 0.812500 0.786207
vt 0.875000 0.745536
vt 0.875000 0.786942
vt 0.937500 0.745536
vt 0.937500 0.787153
vt 1.000000 0.745536
vt 1.000000 0.786808
vt 0.062500 0.827381
vt 0.062500 0.869769
vt 0.000811 0.869657
vt 0.000000 0.827381
vt 0.125000 0.827381
vt 0.125000 0.870002
vt 0.187500 0.827381
vt 0.187500 0.870320
vt 0.250000 0.827381
vt 0.250000 0.870675
vt 0.312500 0.827381
vt 0.312500 0.870760
vt 0.250000 0.872369
vt 0.375000 0.827381
vt 0.375000 0.869247
vt 0.437500 0.827381
vt 0.437500 0.868061
vt 0.500000 0.827381
vt 0.500000 0.867385
vt 0.562500 0.827381
vt 0.562500 0.867323
vt 0.625000 0.827381
vt 0.625000 0.867885
vt 0.687500 0.827381
vt 0.687500 0.868984
vt 0.750000 0.827381
vt 0.750000 0.870450
vt 0.812500 0.827381
vt 0.812500 0.870112
vt 0.875000 0.827381
vt 0.875000 0.869843
vt 0.937500 0.827381
vt 0.937500 0.869683
vt 1.000000 0.827381
vt 0.999189 0.869657
vt 1.000000 0.500000
vt 1.000000 0.541104
vt 0.937500 0.542692
vt 0.937500 0.500000
vt 1.000000 0.581845
vt 1.000000 0.621686
vt 0.937500 0.621114
vt 0.937500 0.581845
vt 1.000000 0.663690
vt 1.000000 0.708574
vt 0.937500 0.708317
vt 0.937500 0.663690
vt 0.875000 0.544098
vt 0.875000 0.500000
vt 0.937500 0.621689
vt 0.875000 0.621734
vt 0.875000 0.581845
vt 0.875000 0.706908
vt 0.875000 0.663690
vt 0.812500 0.545087
vt 0.812500 0.500000
vt 0.812500 0.621986
vt 0.812500 0.581845
vt 0.812500 0.704579
vt 0.812500 0.663690
vt 0.750000 0.545484
vt 0.750000 0.500000
vt 0.750000 0.622409
vt 0.750000 0.581845
vt 0.750000 0.703737
vt 0.750000 0.663690
vt 0.687500 0.545216
vt 0.687500 0.500000
vt 0.687500 0.622939
vt 0.687500 0.581845
vt 0.687500 0.707479
vt 0.687500 0.663690
vt 0.625000 0.544332
vt 0.625000 0.500000
vt 0.625000 0.623496
vt 0.625000 0.581845
vt 0.625000 0.706322
vt 0.625000 0.663690
vt 0.562500 0.542990
vt 0.562500 0.500000
vt 0.562500 0.623995
vt 0.562500 0.581845
vt 0.562500 0.705198
vt 0.562500 0.663690
vt 0.500000 0.541418
vt 0.500000 0.500000
vt 0.500000 0.624359
vt 0.500000 0.581845
vt 0.500000 0.704279
vt 0.500000 0.663690
vt 0.437500 0.542414
vt 0.437500 0.500000
vt 0.437500 0.626135
vt 0.437500 0.581845
vt 0.437500 0.703700
vt 0.437500 0.663690
vt 0.375000 0.542678
vt 0.375000 0.500000
vt 0.375000 0.626336
vt 0.375000 0.581845
vt 0.375000 0.703547
vt 0.375000 0.663690
vt 0.312500 0.542927
vt 0.312500 0.500000
vt 0.312500 0.626118
vt 0.312500 0.581845
vt 0.312500 0.703843
vt 0.312500 0.663690
vt 0.250000 0.543124
vt 0.250000 0.500000
vt 0.250000 0.625516
vt 0.250000 0.581845
vt 0.250000 0.704543
vt 0.250000 0.699984
vt 0.250000 0.663690
vt 0.187500 0.543238
vt 0.187500 0.500000
vt 0.187500 0.624625
vt 0.187500 0.581845
vt 0.187500 0.702964
vt 0.187500 0.663690
vt 0.125000 0.543251
vt 0.125000 0.500000
vt 0.125000 0.623583
vt 0.125000 0.581845
vt 0.125000 0.705658
vt 0.125000 0.663690
vt 0.062500 0.543161
vt 0.062500 0.500000
vt 0.062500 0.622552
vt 0.062500 0.581845
vt 0.062500 0.707635
vt 0.062500 0.663690
vt 0.000000 0.542983
vt 0.000000 0.541104
vt 0.000000 0.500000
vt 0.000000 0.621686
vt 0.000000 0.581845
vt 0.000000 0.708574
vt 0.000000 0.663690
vt 1.000000 0.542983
vt 0.500000 1.000000
vt 0.312500 1.000000
vt 0.250000 1.000000
vt 0.437500 1.000000
vt 0.125000 1.000000
vt 0.062500 1.000000
vt 0.187500 1.000000
vt 0.375000 1.000000
vt 0.750000 1.000000
vt 0.687500 1.000000
vt 0.937500 1.000000
vt 0.875000 1.000000
vt 0.812500 1.000000
vt 0.000000 1.000000
vt 1.000000 1.000000
vn 0.1922 0.1719 -0.9662
vn 0.5473 0.1719 -0.8191
vn 0.8191 0.1719 -0.5473
vn 0.9662 0.1719 -0.1922
vn 0.9662 0.1719 0.1922
vn 0.8191 0.1719 0.5473
vn 0.5473 0.1719 0.8191
vn 0.1922 0.1719 0.9662
vn -0.1922 0.1719 0.9662
vn -0.5473 0.1719 0.8191
vn -0.8191 0.1719 0.5473
vn -0.9662 0.1719 0.1922
vn -0.9662 0.1719 -0.1922
vn -0.8191 0.1719 -0.5473
vn -0.1950 -0.0172 -0.9806
vn -0.5473 0.1719 -0.8191
vn -0.1922 0.1719 -0.9662
vn 0.0000 -1.0000 -0.0000
vn -0.5555 -0.0172 -0.8313
vn -0.5555 -0.0172 -0.8314
vn -0.8313 -0.0172 -0.5555
vn -0.9806 -0.0172 -0.1950
vn -0.9806 -0.0172 0.1950
vn -0.8313 -0.0172 0.5555
vn -0.8314 -0.0172 0.5555
vn -0.5555 -0.0172 0.8313
vn -0.5555 -0.0172 0.8314
vn -0.1950 -0.0172 0.9806
vn 0.1950 -0.0172 0.9806
vn 0.5555 -0.0172 0.8313
vn 0.5555 -0.0172 0.8314
vn 0.8313 -0.0172 0.5555
vn 0.8314 -0.0172 0.5555
vn 0.9806 -0.0172 0.1950
vn 0.9806 -0.0172 -0.1950
vn 0.8313 -0.0172 -0.5555
vn 0.8314 -0.0172 -0.5555
vn 0.5555 -0.0172 -0.8313
vn 0.5555 -0.0172 -0.8314
vn 0.1950 -0.0172 -0.9806
vn -0.1934 0.1322 -0.9722
vn -0.5507 0.1322 -0.8242
vn -0.8242 0.1322 -0.5507
vn -0.9722 0.1322 -0.1934
vn -0.9722 0.1322 0.1934
vn -0.8242 0.1322 0.5507
vn -0.5507 0.1322 0.8242
vn -0.1934 0.1322 0.9722
vn 0.1934 0.1322 0.9722
vn 0.5507 0.1322 0.8242
vn 0.8242 0.1322 0.5507
vn 0.9722 0.1322 0.1934
vn 0.9722 0.1322 -0.1934
vn 0.8242 0.1322 -0.5507
vn 0.5507 0.1322 -0.8242
vn 0.1934 0.1322 -0.9722
vn 0.1483 -0.6497 -0.7455
vn 0.1680 -0.5083 -0.8446
vn 0.1869 -0.2870 -0.9395
vn 0.4171 -0.6605 -0.6243
vn 0.4784 -0.5083 -0.7161
vn 0.5322 -0.2870 -0.7965
vn 0.6183 -0.6685 -0.4132
vn 0.6183 -0.6686 -0.4131
vn 0.7161 -0.5083 -0.4784
vn 0.7965 -0.2870 -0.5322
vn 0.7256 -0.6728 -0.1444
vn 0.8446 -0.5083 -0.1680
vn 0.9395 -0.2870 -0.1869
vn 0.7256 -0.6728 0.1444
vn 0.8446 -0.5083 0.1680
vn 0.9395 -0.2870 0.1869
vn 0.6183 -0.6685 0.4132
vn 0.6183 -0.6686 0.4131
vn 0.7161 -0.5083 0.4784
vn 0.7965 -0.2870 0.5322
vn 0.4171 -0.6605 0.6243
vn 0.4784 -0.5083 0.7161
vn 0.5322 -0.2870 0.7965
vn 0.1483 -0.6497 0.7455
vn 0.1680 -0.5083 0.8446
vn 0.1869 -0.2870 0.9395
vn -0.1503 -0.6376 0.7556
vn -0.1680 -0.5083 0.8446
vn -0.1869 -0.2870 0.9395
vn -0.4332 -0.6259 0.6485
vn -0.4784 -0.5083 0.7161
vn -0.5322 -0.2870 0.7965
vn -0.6545 -0.6167 0.4373
vn -0.7161 -0.5083 0.4784
vn -0.7965 -0.2870 0.5322
vn -0.7760 -0.6116 0.1543
vn -0.8446 -0.5083 0.1680
vn -0.9395 -0.2870 0.1869
vn -0.7760 -0.6116 -0.1543
vn -0.8446 -0.5083 -0.1680
vn -0.9395 -0.2870 -0.1869
vn -0.6545 -0.6167 -0.4373
vn -0.7161 -0.5083 -0.4784
vn -0.7965 -0.2870 -0.5322
vn -0.4332 -0.6259 -0.6485
vn -0.4784 -0.5083 -0.7161
vn -0.5322 -0.2870 -0.7965
vn -0.1503 -0.6376 -0.7556
vn -0.1680 -0.5083 -0.8446
vn -0.1869 -0.2870 -0.9395
vn -0.7760 -0.6116 0.1544
vn -0.7760 -0.6116 -0.1544
vn -0.8314 -0.0172 -0.5555
s 1
f 1/1/1 207/2/1 210/3/1 4/4/1
f 4/4/2 210/3/2 208/5/2 6/6/2
f 6/6/3 208/5/3 211/7/3 8/8/3
f 8/8/4 211/7/4 212/9/4 10/10/4
f 10/10/5 212/9/5 209/11/5 12/12/5
f 12/12/6 209/11/6 213/13/6 13/14/6 14/15/6
f 14/15/7 13/14/7 15/16/7 206/17/7 16/18/7
f 16/18/8 206/17/8 203/19/8 18/20/8
f 18/20/9 203/19/9 202/21/9 20/22/9
f 20/22/10 202/21/10 204/23/10 22/24/10
f 22/24/11 204/23/11 201/25/11 24/26/11
f 24/26/12 201/25/12 200/27/12 26/28/12
f 26/28/13 200/27/13 198/29/13 28/30/13
f 28/30/14 198/29/14 199/31/14 30/32/14
f 31/33/15 177/34/15 176/35/15 34/36/15
f 30/32/16 199/31/16 205/37/16 36/38/16
f 36/38/17 205/37/17 207/39/17 1/40/17
f 37/41/18 38/42/18 39/43/18 40/44/18 41/45/18 42/46/18 43/47/18 44/48/18 45/49/18 46/50/18 47/51/18 48/52/18 49/53/18 50/54/18 51/55/18 52/56/18
f 53/57/19 173/58/20 177/34/20 31/33/19
f 55/59/21 179/60/21 173/58/21 53/57/21
f 57/61/22 175/62/22 179/60/22 55/59/22
f 59/63/23 171/64/23 165/65/23 175/62/23 57/61/23
f 61/66/24 170/67/25 171/64/25 59/63/24
f 63/68/26 168/69/27 170/67/27 61/66/26
f 65/70/28 164/71/28 168/69/28 63/68/28
f 67/72/29 166/73/29 164/71/29 65/70/29
f 69/74/30 169/75/31 166/73/31 67/72/30
f 71/76/32 167/77/33 169/75/33 69/74/32
f 73/78/34 180/79/34 167/77/34 71/76/34
f 75/80/35 174/81/35 180/79/35 73/78/35
f 77/82/36 172/83/37 174/81/37 75/80/36
f 79/84/38 178/85/39 172/83/39 77/82/38
f 34/86/40 176/87/40 178/85/40 79/84/40
f 32/88/41 196/89/41 194/90/41 33/91/41
f 54/92/42 193/93/42 196/89/42 32/88/42
f 56/94/43 191/95/43 193/93/43 54/92/43
f 58/96/44 195/97/44 191/95/44 56/94/44
f 60/98/45 183/99/45 187/100/45 195/97/45 58/96/45
f 62/101/46 188/102/46 183/99/46 60/98/46
f 64/103/47 185/104/47 188/102/47 62/101/47
f 66/105/48 184/106/48 185/104/48 64/103/48
f 68/107/49 186/108/49 184/106/49 66/105/49
f 70/109/50 182/110/50 186/108/50 68/107/50
f 72/111/51 181/112/51 182/110/51 70/109/51
f 74/113/52 189/114/52 181/112/52 72/111/52
f 76/115/53 192/116/53 189/114/53 74/113/53
f 78/117/54 190/118/54 192/116/54 76/115/54
f 80/119/55 197/120/55 190/118/55 78/117/55
f 33/121/56 194/122/56 197/120/56 80/119/56
f 37/123/57 123/124/57 140/125/57 38/126/57
f 81/127/58 141/128/58 132/129/58 82/130/58
f 83/131/59 162/132/59 149/133/59 84/134/59
f 38/126/60 140/125/60 113/135/60 39/136/60
f 82/130/61 132/129/61 133/137/61 139/138/61 85/139/61
f 84/134/62 149/133/62 155/140/62 86/141/62
f 39/136/63 113/135/64 142/142/64 40/143/63
f 85/139/65 139/138/65 131/144/65 87/145/65
f 86/141/66 155/140/66 148/146/66 88/147/66
f 40/143/67 142/142/67 122/148/67 41/149/67
f 87/145/68 131/144/68 127/150/68 89/151/68
f 88/147/69 148/146/69 163/152/69 90/153/69
f 41/149/70 122/148/70 129/154/70 42/155/70
f 89/151/71 127/150/71 136/156/71 91/157/71
f 90/153/72 163/152/72 160/158/72 92/159/72
f 42/155/73 129/154/74 117/160/74 43/161/73
f 91/157/75 136/156/75 143/162/75 93/163/75
f 92/159/76 160/158/76 150/164/76 94/165/76
f 43/161/77 117/160/77 134/166/77 44/167/77
f 93/163/78 143/162/78 121/168/78 95/169/78
f 94/165/79 150/164/79 153/170/79 96/171/79
f 44/167/80 134/166/80 119/172/80 45/173/80
f 95/169/81 121/168/81 125/174/81 97/175/81
f 96/171/82 153/170/82 152/176/82 98/177/82
f 45/173/83 119/172/83 115/178/83 46/179/83
f 97/175/84 125/174/84 128/180/84 99/181/84
f 98/177/85 152/176/85 157/182/85 100/183/85
f 46/179/86 115/178/86 120/184/86 47/185/86
f 99/181/87 128/180/87 126/186/87 101/187/87
f 100/183/88 157/182/88 161/188/88 102/189/88
f 47/185/89 120/184/89 130/190/89 48/191/89
f 101/187/90 126/186/90 144/192/90 103/193/90
f 102/189/91 161/188/91 151/194/91 104/195/91
f 48/191/92 130/190/92 135/196/92 49/197/92
f 103/193/93 144/192/93 138/198/93 105/199/93
f 104/195/94 151/194/94 158/200/94 159/201/94 106/202/94
f 49/197/95 135/196/95 118/203/95 50/204/95
f 105/199/96 138/198/96 145/205/96 107/206/96
f 106/202/97 159/201/97 154/207/97 108/208/97
f 50/204/98 118/203/98 137/209/98 51/210/98
f 107/206/99 145/205/99 114/211/99 109/212/99
f 108/208/100 154/207/100 156/213/100 110/214/100
f 51/210/101 137/209/101 116/215/101 52/216/101
f 109/212/102 114/211/102 146/217/102 111/218/102
f 110/214/103 156/213/103 147/219/103 112/220/103
f 52/216/104 116/215/104 124/221/104 123/222/104 37/223/104
f 111/218/105 146/217/105 141/224/105 81/225/105
f 112/220/106 147/219/106 162/226/106 83/227/106
f 117/160/74 129/154/74 91/157/74 93/163/74
f 119/172/80 134/166/80 95/169/80 97/175/80
f 120/184/86 115/178/86 99/181/86 101/187/86
f 135/196/92 130/190/92 103/193/107 105/199/107
f 137/209/98 118/203/98 107/206/98 109/212/98
f 124/221/104 116/215/104 111/218/104 81/225/104
f 132/129/58 141/128/58 83/131/58 84/134/58 133/137/58
f 131/144/65 139/138/65 86/141/65 88/147/65
f 136/156/71 127/150/71 90/153/71 92/159/71
f 121/168/78 143/162/78 94/165/78 96/171/78
f 144/192/90 126/186/90 102/189/90 104/195/90
f 145/205/96 138/198/96 106/202/96 108/208/96
f 146/217/102 114/211/102 110/214/102 112/220/102
f 140/125/57 124/228/57 81/127/57 82/130/57
f 124/228/57 140/125/57 123/124/57
f 142/142/64 113/135/64 85/139/64 87/145/64
f 129/154/70 122/148/70 89/151/70 91/157/70
f 134/166/77 117/160/77 93/163/77 95/169/77
f 130/190/89 120/184/89 101/187/89 103/193/89
f 118/203/95 135/196/95 105/199/108 107/206/108
f 116/215/101 137/209/101 109/212/101 111/218/101
f 139/138/61 133/137/61 84/134/61 86/141/61
f 127/150/68 131/144/68 88/147/68 90/153/68
f 143/162/75 136/156/75 92/159/75 94/165/75
f 125/174/81 121/168/81 96/171/81 98/177/81
f 126/186/87 128/180/87 100/183/87 102/189/87
f 138/198/93 144/192/93 104/195/93 106/202/93
f 114/211/99 145/205/99 108/208/99 110/214/99
f 141/224/105 146/217/105 112/220/105 83/227/105
f 113/135/60 140/125/60 82/130/60 85/139/60
f 122/148/67 142/142/67 87/145/67 89/151/67
f 128/180/84 125/174/84 98/177/84 100/183/84
f 115/178/83 119/172/83 97/175/83 99/181/83
f 150/164/76 160/158/76 71/76/76 69/74/76
f 152/176/82 153/170/82 67/72/82 65/70/82
f 161/188/88 157/182/88 63/68/88 61/66/88
f 158/200/94 151/194/94 59/63/94 57/61/94
f 149/133/59 162/132/59 34/86/59 79/84/59
f 156/213/100 154/207/100 55/59/100 53/57/100
f 148/146/66 155/140/66 77/82/66 75/80/66
f 162/226/106 147/219/106 31/33/106 34/36/106
f 153/170/79 150/164/79 69/74/79 67/72/79
f 157/182/85 152/176/85 65/70/85 63/68/85
f 151/194/91 161/188/91 61/66/91 59/63/91
f 154/207/97 159/201/97 158/200/97 57/61/97 55/59/97
f 155/140/62 149/133/62 79/84/62 77/82/62
f 147/219/103 156/213/103 53/57/103 31/33/103
f 160/158/72 163/152/72 73/78/72 71/76/72
f 163/152/69 148/146/69 75/80/69 73/78/69
f 168/69/28 164/71/28 66/105/28 64/103/28
f 165/65/23 171/64/23 60/98/23 58/96/23
f 164/71/29 166/73/29 68/107/29 66/105/29
f 171/64/25 170/67/25 62/101/25 60/98/25
f 166/73/31 169/75/31 70/109/31 68/107/31
f 170/67/27 168/69/27 64/103/27 62/101/27
f 169/75/33 167/77/33 72/111/33 70/109/33
f 172/83/39 178/85/39 80/119/39 78/117/39
f 177/34/20 173/58/20 54/92/20 32/88/20
f 178/85/40 176/87/40 33/121/40 80/119/40
f 173/58/21 179/60/21 56/94/109 54/92/109
f 176/35/15 177/34/15 32/88/15 33/91/15
f 174/81/37 172/83/37 78/117/37 76/115/37
f 179/60/22 175/62/22 165/65/22 58/96/22 56/94/22
f 167/77/34 180/79/34 74/113/34 72/111/34
f 180/79/35 174/81/35 76/115/35 74/113/35
f 184/106/49 186/108/49 16/18/49 18/20/49
f 183/99/46 188/102/46 22/24/46 24/26/46
f 186/108/50 182/110/50 14/15/50 16/18/50
f 188/102/47 185/104/47 20/22/47 22/24/47
f 182/110/51 181/112/51 12/12/51 14/15/51
f 185/104/48 184/106/48 18/20/48 20/22/48
f 187/100/45 183/99/45 24/26/45 26/28/45
f 181/112/52 189/114/52 10/10/52 12/12/52
f 197/120/56 194/122/56 1/1/56 4/4/56
f 189/114/53 192/116/53 8/8/53 10/10/53
f 193/93/43 191/95/43 28/30/43 30/32/43
f 192/116/54 190/118/54 6/6/54 8/8/54
f 191/95/44 195/97/44 187/100/44 26/28/44 28/30/44
f 194/90/41 196/89/41 36/38/41 1/40/41
f 190/118/55 197/120/55 4/4/55 6/6/55
f 196/89/42 193/93/42 30/32/42 36/38/42
f 203/19/8 206/17/8 15/16/8 17/229/8
f 200/27/12 201/25/12 23/230/12 25/231/12
f 202/21/9 203/19/9 17/229/9 19/232/9
f 205/37/16 199/31/16 29/233/16 35/234/16
f 198/29/13 200/27/13 25/231/13 27/235/13
f 204/23/10 202/21/10 19/232/10 21/236/10
f 199/31/14 198/29/14 27/235/14 29/233/14
f 201/25/11 204/23/11 21/236/11 23/230/11
f 209/11/5 212/9/5 9/237/5 11/238/5
f 208/5/2 210/3/2 3/239/2 5/240/2
f 13/14/6 213/13/6 209/11/6 11/238/6
f 211/7/3 208/5/3 5/240/3 7/241/3
f 207/39/17 205/37/17 35/234/17 2/242/17
f 212/9/4 211/7/4 7/241/4 9/237/4
f 210/3/1 207/2/1 2/243/1 3/239/1
